Coordinates
version=1
nRows=9
nColumns=36
inDegrees=yes

Units are S.I. units (second, meters, Newtons, ...)
If the header above contains a line with 'inDegrees', this indicates whether rotational values are in degrees (yes) or radians (no).

endheader
time	pelvis_tilt	pelvis_list	pelvis_rotation	pelvis_tx	pelvis_ty	pelvis_tz	hip_flexion_r	hip_adduction_r	hip_rotation_r	knee_angle_r	knee_angle_r_beta	ankle_angle_r	subtalar_angle_r	mtp_angle_r	hip_flexion_l	hip_adduction_l	hip_rotation_l	knee_angle_l	knee_angle_l_beta	ankle_angle_l	subtalar_angle_l	mtp_angle_l	lumbar_extension	lumbar_bending	lumbar_rotation	arm_flex_r	arm_add_r	arm_rot_r	elbow_flex_r	pro_sup_r	arm_flex_l	arm_add_l	arm_rot_l	elbow_flex_l	pro_sup_l
      3.43333330	    -14.39135985	      1.57534494	     -1.61217527	     -0.44821572	      1.52503343	     -0.04358205	     -2.35456045	     -2.00392292	    -20.04352589	      3.53455238	      0.06168958	    -43.39475069	     -2.04257285	     -7.49999987	      2.05019510	     -4.00981275	    -17.08063823	     11.52133558	      0.20108524	    -40.51200363	     -8.80193812	     -7.49999987	      4.21625799	     -0.86223205	     -0.99264931	     22.66036697	    -27.34513877	     -1.39398883	    136.37031926	     95.28698824	     19.27058575	    -43.77615731	      2.33754545	    135.43554131	     85.92384860
      3.43750000	    -14.33152959	      1.28903650	     -1.53745920	     -0.44455044	      1.52685730	     -0.04430524	     -2.33096606	     -1.75898009	    -20.07475643	      3.59006910	      0.06265853	    -43.05134228	     -1.64484684	     -7.49999987	      2.07117587	     -4.43205647	    -18.18109092	     10.86290681	      0.18959349	    -40.48650005	     -9.43803146	     -7.49999987	      4.30032146	     -0.39829074	     -1.13738929	     22.05776638	    -27.39304720	     -1.33211045	    136.60444718	     95.18562076	     18.54262054	    -43.51008074	      2.34187823	    135.46910850	     85.81241022
      3.44166670	    -14.17386900	      1.35155827	     -1.45836406	     -0.43978018	      1.52955248	     -0.04350653	     -2.22872420	     -1.83478593	    -20.26058494	      3.63776301	      0.06349094	    -42.59664551	     -1.80840058	     -7.49999987	      2.11223779	     -4.48697337	    -18.50659109	     10.78577481	      0.18824728	    -39.44565089	    -10.02512668	     -7.49999987	      4.17681621	     -0.42607645	     -1.20513512	     21.74012965	    -27.32992277	     -1.25510494	    136.67038190	     95.14209110	     18.15379374	    -43.46329222	      2.37898291	    135.33755440	     85.76120341
      3.44583330	    -14.21363147	      1.29536461	     -1.54902611	     -0.43878052	      1.53379646	     -0.04286870	     -1.45529756	     -1.80237873	    -20.23028012	      4.02805872	      0.07030289	    -42.31396313	     -2.10032056	     -7.49999987	      2.85396609	     -4.68582256	    -18.88434802	     11.50076141	      0.20072615	    -37.70943714	    -10.12472792	     -7.49999987	      3.74930035	     -0.25676459	     -1.39908140	     21.54721020	    -27.25064962	     -1.11200015	    137.06864329	     94.82392763	     17.18975698	    -43.44198841	      1.63282788	    135.66316238	     85.33499945
      3.45000000	    -13.83128132	      1.42834673	     -1.66028204	     -0.43390662	      1.53957615	     -0.04108850	     -1.14165664	     -1.90109687	    -20.43389628	      4.19665629	      0.07324547	    -42.39107459	     -2.38052634	     -7.49999987	      3.35730840	     -4.73128690	    -18.64092838	     12.19154072	      0.21278253	    -36.16668428	    -10.47403364	     -7.49999987	      2.95076763	     -0.43366825	     -1.69815357	     21.70620245	    -26.94526177	     -0.62075450	    136.82594911	     91.92093494	     16.20181439	    -43.67470444	      0.80259878	    136.00120741	     82.86309549
      3.45416670	    -13.50832826	      1.58536222	     -1.91278621	     -0.42859761	      1.54066649	     -0.03873390	     -0.89868802	     -1.93523628	    -20.54033257	      4.34524076	      0.07583876	    -42.48700521	     -3.18578081	     -7.49999987	      3.44741122	     -4.74367424	    -19.15676755	     12.30016120	      0.21467831	    -34.88027377	    -10.49902408	     -7.49999987	      2.36801979	     -0.83049377	     -1.61298891	     21.64091104	    -26.65508722	     -0.54466656	    136.67421620	     88.76111844	     16.01432933	    -43.94845820	      0.57798540	    136.24785192	     80.52485023
      3.45833330	    -13.47504301	      1.77350547	     -1.92123223	     -0.41963564	      1.54501674	     -0.04189290	     -0.73493356	     -2.17074133	    -21.81745303	      4.26678748	      0.07446949	    -41.87066054	     -2.68712091	     -7.49999987	      3.40490459	     -4.46700153	    -19.73399138	     11.91892801	      0.20802454	    -33.84942451	    -10.20218186	     -7.49999987	      2.47783911	     -1.04288104	     -2.06638691	     21.65631591	    -26.07928874	     -0.31651760	    135.89574583	     93.70837806	     14.78004906	    -44.02337686	     -0.49092172	    136.26296000	     83.30173823
      3.46250000	    -13.48552956	      1.73707695	     -1.93138753	     -0.41564985	      1.54971338	     -0.04174135	     -0.47209883	     -2.11569677	    -22.46954889	      4.02474386	      0.07024503	    -41.36133988	     -2.22758537	     -7.49999987	      3.42698840	     -4.44534028	    -20.47320407	     11.13080807	      0.19426925	    -32.88049117	     -9.73591433	     -7.49999987	      2.58952513	     -1.02410021	     -2.08483723	     21.28866889	    -25.80560809	     -0.40497917	    135.54487653	     93.67865474	     14.35340107	    -43.94372219	     -0.36285626	    135.94893219	     83.25756070
      3.46666670	    -13.42147468	      1.63629805	     -1.84043867	     -0.40947452	      1.55055346	     -0.04122424	     -0.42827528	     -1.92454907	    -23.07813874	      3.80034687	      0.06632857	    -41.10630979	     -1.77609338	     -7.49999987	      3.34051442	     -4.59913769	    -21.18122683	     10.31088206	      0.17995884	    -31.35197715	     -9.11091948	     -7.49999987	      2.64610637	     -0.92965505	     -2.24476393	     21.02831467	    -25.54400820	     -0.35636467	    135.12354155	     92.68235840	     13.83807004	    -43.82416370	     -0.33825347	    135.74206732	     82.15012692
